<?xml version="1.0" encoding="iso-8859-1"?>
<!-- Generator: Adobe Illustrator 19.0.0, SVG Export Plug-In . SVG Version: 6.00 Build 0)  -->
<svg version="1.1" id="Layer_1" xmlns="http://www.w3.org/2000/svg" xmlns:xlink="http://www.w3.org/1999/xlink" x="0px" y="0px"
	 viewBox="0 0 512 512" style="enable-background:new 0 0 512 512;" xml:space="preserve">
<polygon style="fill:#F7B239;" points="416.915,144.281 256.004,237.179 95.07,144.27 256.004,51.372 "/>
<polygon style="fill:#2BA5F7;" points="256.004,237.179 255.981,426.838 95.081,333.871 95.07,144.27 "/>
<polygon style="fill:#F95428;" points="416.915,144.281 416.915,333.94 255.992,426.85 255.981,426.838 256.004,237.179 "/>
<g>
	<path style="fill:#333333;" d="M251.675,43.884L90.745,136.78c-2.676,1.545-4.324,4.4-4.324,7.491l0.016,189.604
		c0,3.088,1.648,5.942,4.322,7.487l160.903,92.972c1.339,0.774,2.833,1.16,4.327,1.16c1.492,0,2.986-0.386,4.324-1.159l160.928-92.9
		c2.675-1.545,4.324-4.4,4.324-7.491V144.278c0-3.09-1.649-5.945-4.324-7.49L260.322,43.884
		C257.647,42.339,254.35,42.339,251.675,43.884z M103.718,159.253l143.631,82.926l-0.013,169.68l-143.604-82.975L103.718,159.253z
		 M408.266,328.951l-143.632,82.915l0.012-169.688l143.619-82.92v169.692H408.266z M255.998,227.199l-143.632-82.927l143.632-82.911
		l143.619,82.917L255.998,227.199z"/>
	<path style="fill:#333333;" d="M499.904,96.577c-2.389-4.136-7.679-5.554-11.814-3.165l-31.028,17.914
		C415.012,44.505,340.611,0,255.998,0S96.984,44.504,54.934,111.324L23.912,93.411c-4.136-2.387-9.426-0.972-11.815,3.165
		s-0.971,9.426,3.165,11.815l30.999,17.899C28.618,159.463,18.601,197.28,18.601,237.4c0,128.001,101.834,232.647,228.737,237.223
		v28.729c0,4.776,3.872,8.649,8.649,8.649c4.778,0,8.649-3.872,8.649-8.649v-28.73c126.915-4.564,228.76-109.215,228.76-237.224
		c0-40.119-10.017-77.936-27.661-111.107l31.004-17.9C500.875,106.002,502.292,100.713,499.904,96.577z M255.998,457.499
		c-121.364,0-220.101-98.736-220.101-220.1S134.634,17.297,255.998,17.297s220.1,98.738,220.1,220.101
		S377.36,457.499,255.998,457.499z"/>
</g>
</svg>
